<svg id="Livello_1" data-name="Livello 1" xmlns="http://www.w3.org/2000/svg" viewBox="0 0 44.5 28.17"><defs><style>.cls-1{fill:#e3000f;fill-rule:evenodd;}</style></defs><title>soloLogoNetter</title><path class="cls-1" d="M159,423.59a4.41,4.41,0,0,1,4.4,4.35,2.69,2.69,0,0,0,0,.27l0,1.08,1,0.36a2.92,2.92,0,0,1-1,5.69H148.75a2.93,2.93,0,0,1,0-5.87l0.21,0,1.12,0.07,0.37-1.05a2.93,2.93,0,0,1,2.75-2,3,3,0,0,1,.51.05l1,0.19,0.51-.91a4.4,4.4,0,0,1,3.82-2.26h0Zm0-1.47a5.85,5.85,0,0,0-5.1,3A4.32,4.32,0,0,0,149,428l-0.26,0a4.4,4.4,0,0,0,0,8.8h14.67a4.39,4.39,0,0,0,1.44-8.54c0-.09,0-0.17,0-0.26a5.87,5.87,0,0,0-5.87-5.87h0Z" transform="translate(-144.34 -408.64)"/><path class="cls-1" d="M156.18,408.68a5.33,5.33,0,0,1,.8,0h27.92a4.94,4.94,0,0,1,2,.23,3.07,3.07,0,0,1,1.89,2.81q0,11,0,22a3.07,3.07,0,0,1-3.17,3.09H169.31a0.78,0.78,0,1,1,0-1.57h16.53a1.5,1.5,0,0,0,1.44-1.45q0-10.71,0-21.42a2.89,2.89,0,0,0-.17-1.35,1.5,1.5,0,0,0-1.36-.8H156.68a1.5,1.5,0,0,0-1.52,1.46c0,3.21,0,6.43,0,9.64a0.78,0.78,0,0,1-1.48.41,1.19,1.19,0,0,1-.08-0.57c0-3.18,0-6.37,0-9.55A3.08,3.08,0,0,1,156.18,408.68Z" transform="translate(-144.34 -408.64)"/></svg>