<?xml version="1.0" encoding="UTF-8" standalone="no"?>
<!-- Created with Inkscape (http://www.inkscape.org/) -->

<svg
   xmlns:dc="http://purl.org/dc/elements/1.1/"
   xmlns:cc="http://creativecommons.org/ns#"
   xmlns:rdf="http://www.w3.org/1999/02/22-rdf-syntax-ns#"
   xmlns:svg="http://www.w3.org/2000/svg"
   xmlns="http://www.w3.org/2000/svg"
   xmlns:sodipodi="http://sodipodi.sourceforge.net/DTD/sodipodi-0.dtd"
   xmlns:inkscape="http://www.inkscape.org/namespaces/inkscape"
   width="277.70691mm"
   height="73.254578mm"
   viewBox="0 0 277.70691 73.254578"
   version="1.1"
   id="svg950"
   inkscape:version="0.92.3 (2405546, 2018-03-11)"
   sodipodi:docname="logonetterULTIMO2_sfondonero2.svg">
  <defs
     id="defs944" />
  <sodipodi:namedview
     id="base"
     pagecolor="#ffffff"
     bordercolor="#666666"
     borderopacity="1.0"
     inkscape:pageopacity="0.0"
     inkscape:pageshadow="2"
     inkscape:zoom="0.35"
     inkscape:cx="-180.91381"
     inkscape:cy="96.129589"
     inkscape:document-units="mm"
     inkscape:current-layer="layer1"
     showgrid="false"
     fit-margin-top="0"
     fit-margin-left="0"
     fit-margin-right="0"
     fit-margin-bottom="0"
     inkscape:window-width="1920"
     inkscape:window-height="995"
     inkscape:window-x="1920"
     inkscape:window-y="0"
     inkscape:window-maximized="1" />
  <metadata
     id="metadata947">
    <rdf:RDF>
      <cc:Work
         rdf:about="">
        <dc:format>image/svg+xml</dc:format>
        <dc:type
           rdf:resource="http://purl.org/dc/dcmitype/StillImage" />
        <dc:title></dc:title>
      </cc:Work>
    </rdf:RDF>
  </metadata>
  <g
     inkscape:label="Livello 1"
     inkscape:groupmode="layer"
     id="layer1"
     transform="translate(30.752268,-101.01304)">
    <path
       d="M -30.752267,174.26762 H 246.95465 V 101.01304 H -30.752267 Z"
       style="fill:#333333;fill-opacity:1;fill-rule:evenodd;stroke:#1a1a18;stroke-width:0;stroke-linecap:butt;stroke-linejoin:miter;stroke-miterlimit:22.9260006;stroke-dasharray:none;stroke-opacity:1"
       id="path12"
       inkscape:connector-curvature="0" />
    <g
       id="g22"
       transform="matrix(1.5182293,0,0,-1.5182293,7.8602505,135.61699)">
      <path
         d="m 0,0 c -2.198,0 -4.091,-1.225 -5.097,-3.012 -0.25,0.044 -0.507,0.077 -0.772,0.077 -1.923,0 -3.541,-1.241 -4.14,-2.961 -0.087,0.006 -0.172,0.027 -0.262,0.027 -2.43,0 -4.402,-1.972 -4.402,-4.402 0,-2.43 1.972,-4.402 4.402,-4.402 H 4.402 c 2.43,0 4.402,1.972 4.402,4.402 0,1.922 -1.241,3.542 -2.961,4.141 0.004,0.089 0.026,0.172 0.026,0.261 C 5.869,-2.628 3.241,0 0,0 m 0,-1.468 c 2.41,0 4.374,-1.945 4.402,-4.347 -0.011,-0.089 -0.02,-0.177 -0.023,-0.269 l -0.037,-1.078 1.02,-0.356 c 1.181,-0.411 1.975,-1.518 1.975,-2.753 0,-1.62 -1.316,-2.935 -2.935,-2.935 h -14.673 c -1.618,0 -2.935,1.315 -2.935,2.935 0,1.602 1.293,2.909 2.889,2.934 0.069,-0.01 0.141,-0.018 0.212,-0.022 l 1.115,-0.074 0.367,1.053 c 0.413,1.185 1.519,1.978 2.754,1.978 0.143,0 0.301,-0.018 0.513,-0.054 l 1.027,-0.186 0.512,0.911 c 0.785,1.395 2.247,2.263 3.817,2.263"
         style="fill:#e3000f;fill-opacity:1;fill-rule:evenodd;stroke:none"
         id="path24"
         inkscape:connector-curvature="0" />
    </g>
    <g
       id="g26"
       transform="matrix(1.5182293,0,0,-1.5182293,3.5591105,115.20684)">
      <path
         d="m 0,0 c 0.265,0.04 0.535,0.036 0.802,0.036 9.308,-10e-4 18.617,0 27.925,-10e-4 0.684,-0.001 1.401,0.057 2.045,-0.23 1.115,-0.45 1.899,-1.603 1.89,-2.808 10e-4,-7.345 10e-4,-14.688 0,-22.033 0.03,-1.188 -0.713,-2.342 -1.799,-2.82 -0.427,-0.2 -0.901,-0.285 -1.37,-0.273 H 13.125 c -0.426,-0.014 -0.818,0.373 -0.792,0.801 -10e-4,0.415 0.375,0.781 0.79,0.766 5.51,0.002 11.021,-0.002 16.53,0.002 0.764,0.006 1.439,0.687 1.441,1.451 0.003,7.14 -0.002,14.282 0.002,21.422 -0.009,0.453 0.056,0.937 -0.167,1.351 -0.252,0.495 -0.798,0.823 -1.355,0.804 H 0.499 c -0.8,0.035 -1.53,-0.662 -1.522,-1.464 -0.005,-3.215 10e-4,-6.43 -0.003,-9.644 0.022,-0.324 -0.172,-0.649 -0.472,-0.773 -0.363,-0.17 -0.838,0.002 -1.01,0.364 -0.093,0.174 -0.084,0.375 -0.085,0.566 0.004,3.184 -0.004,6.368 0.004,9.553 C -2.574,-1.497 -1.417,-0.196 0,0"
         style="fill:#e3000f;fill-opacity:1;fill-rule:evenodd;stroke:none"
         id="path28"
         inkscape:connector-curvature="0" />
    </g>
    <path
       d="m 101.98348,143.26233 h 5.53243 v -28.1191 h -5.53243 z"
       style="fill:#ffffff;fill-opacity:1;fill-rule:nonzero;stroke:none;stroke-width:1.51822925"
       id="path30"
       inkscape:connector-curvature="0" />
    <g
       id="g32"
       transform="matrix(1.5182293,0,0,-1.5182293,134.28549,152.52355)"
       style="fill:#ffffff;fill-opacity:1">
      <path
         d="m 0,0 c -0.907,-0.725 -2.07,-1.084 -3.468,-1.084 -1.834,0 -3.271,0.587 -4.303,1.77 -0.646,0.74 -1.099,1.672 -1.355,2.796 h -3.617 c 0.361,-1.928 1.097,-3.541 2.209,-4.835 1.646,-1.913 3.893,-2.866 6.741,-2.866 2.422,0 4.434,0.654 6.026,1.953 1.594,1.299 2.574,3.076 2.946,5.335 H 1.77 C 1.502,1.743 0.915,0.719 0,0"
         style="fill:#ffffff;fill-opacity:1;fill-rule:nonzero;stroke:none"
         id="path34"
         inkscape:connector-curvature="0" />
    </g>
    <path
       d="m 73.66699,157.91782 h 5.53243 v -10.68078 h -5.53243 z"
       style="fill:#ffffff;fill-opacity:1;fill-rule:nonzero;stroke:none;stroke-width:1.51822925"
       id="path36"
       inkscape:connector-curvature="0" />
    <g
       id="g38"
       transform="matrix(1.5182293,0,0,-1.5182293,80.03171,115.14457)"
       style="fill:#ffffff;fill-opacity:1">
      <path
         d="m 0,0 h -4.192 v -18.521 h 3.644 v 13.186 c 0.15,-0.386 0.313,-0.745 0.489,-1.091 0.17,-0.346 0.359,-0.679 0.562,-0.993 l 7.193,-11.102 h 4.229 z"
         style="fill:#ffffff;fill-opacity:1;fill-rule:nonzero;stroke:none"
         id="path40"
         inkscape:connector-curvature="0" />
    </g>
    <g
       id="g42"
       transform="matrix(1.5182293,0,0,-1.5182293,120.01868,139.53568)"
       style="fill:#ffffff;fill-opacity:1">
      <path
         d="m 0,0 c 0.163,1.953 0.738,3.442 1.711,4.46 0.979,1.025 2.312,1.535 4.01,1.535 1.756,0 3.114,-0.522 4.068,-1.56 C 10.749,3.396 11.233,1.914 11.246,0 Z M 5.597,9.052 C 2.723,9.052 0.476,8.072 -1.156,6.106 -2.789,4.141 -3.605,1.411 -3.605,-2.083 l 0.003,-0.372 h 18.436 c 0.004,0.063 0.008,0.126 0.01,0.189 0.006,0.203 0.006,0.516 0.006,0.934 0,3.305 -0.803,5.858 -2.416,7.667 -1.613,1.809 -3.892,2.717 -6.837,2.717"
         style="fill:#ffffff;fill-opacity:1;fill-rule:nonzero;stroke:none"
         id="path44"
         inkscape:connector-curvature="0" />
    </g>
    <g
       id="g46"
       transform="matrix(1.5182293,0,0,-1.5182293,185.9616,139.53568)"
       style="fill:#ffffff;fill-opacity:1">
      <path
         d="m 0,0 c 0.164,1.953 0.738,3.442 1.711,4.46 0.98,1.025 2.312,1.535 4.01,1.535 1.757,0 3.115,-0.522 4.069,-1.56 C 10.749,3.396 11.233,1.914 11.246,0 Z m 5.597,9.052 c -2.873,0 -5.12,-0.98 -6.752,-2.946 -1.633,-1.965 -2.449,-4.695 -2.449,-8.189 l 0.003,-0.372 h 18.435 c 0.005,0.063 0.008,0.126 0.01,0.189 0.007,0.203 0.007,0.516 0.007,0.934 0,3.305 -0.804,5.858 -2.417,7.667 -1.613,1.809 -3.892,2.717 -6.837,2.717"
         style="fill:#ffffff;fill-opacity:1;fill-rule:nonzero;stroke:none"
         id="path48"
         inkscape:connector-curvature="0" />
    </g>
    <path
       d="m 214.50705,157.91782 h 5.23486 v -10.68078 h -5.23486 z"
       style="fill:#ffffff;fill-opacity:1;fill-rule:nonzero;stroke:none;stroke-width:1.51822925"
       id="path50"
       inkscape:connector-curvature="0" />
    <g
       id="g52"
       transform="matrix(1.5182293,0,0,-1.5182293,200.22901,152.52355)"
       style="fill:#ffffff;fill-opacity:1">
      <path
         d="m 0,0 c -0.908,-0.725 -2.07,-1.084 -3.468,-1.084 -1.835,0 -3.271,0.587 -4.303,1.77 -0.647,0.74 -1.098,1.672 -1.355,2.796 h -3.617 c 0.361,-1.928 1.097,-3.541 2.209,-4.835 1.646,-1.913 3.892,-2.866 6.74,-2.866 2.422,0 4.434,0.654 6.028,1.953 1.593,1.299 2.573,3.076 2.945,5.335 H 1.77 C 1.502,1.743 0.915,0.719 0,0"
         style="fill:#ffffff;fill-opacity:1;fill-rule:nonzero;stroke:none"
         id="path54"
         inkscape:connector-curvature="0" />
    </g>
    <g
       id="g56"
       transform="matrix(1.5182293,0,0,-1.5182293,157.47704,153.57476)"
       style="fill:#ffffff;fill-opacity:1">
      <path
         d="M 0,0 C -0.705,0 -1.182,0.149 -1.443,0.457 -1.705,0.765 -1.835,1.378 -1.835,2.299 V 4.175 H -5.283 V 1.13 c 0,-1.594 0.326,-2.703 0.972,-3.331 0.654,-0.62 1.79,-0.934 3.403,-0.934 0.359,0 0.764,0.027 1.215,0.079 0.457,0.052 0.966,0.124 1.541,0.229 V 0.098 C 1.391,0.06 1.019,0.033 0.731,0.02 0.444,0.007 0.202,0 0,0"
         style="fill:#ffffff;fill-opacity:1;fill-rule:nonzero;stroke:none"
         id="path58"
         inkscape:connector-curvature="0" />
    </g>
    <g
       id="g60"
       transform="matrix(1.5182293,0,0,-1.5182293,229.03241,126.15995)"
       style="fill:#ffffff;fill-opacity:1">
      <path
         d="m 0,0 c -0.111,0.006 -0.301,0.006 -0.556,0.006 -1.364,0 -2.513,-0.339 -3.448,-1.018 -0.94,-0.686 -1.684,-1.711 -2.233,-3.083 v 3.67 h -3.33 v -10.84 h 3.448 v 1.75 c 0,1.913 0.483,3.376 1.443,4.375 0.966,1 2.364,1.502 4.198,1.502 0.23,0 0.406,0 0.517,-0.007 0.117,-0.006 0.216,-0.019 0.307,-0.032 v 3.625 C 0.229,-0.026 0.117,-0.007 0,0"
         style="fill:#ffffff;fill-opacity:1;fill-rule:nonzero;stroke:none"
         id="path62"
         inkscape:connector-curvature="0" />
    </g>
    <g
       id="g64"
       transform="matrix(1.5182293,0,0,-1.5182293,154.69109,118.11955)"
       style="fill:#ffffff;fill-opacity:1">
      <path
         d="m 0,0 h -3.448 v -5.721 h -3.063 v -2.742 h 3.063 v -8.098 H 0 v 8.098 h 3.683 v 2.742 H 0 Z"
         style="fill:#ffffff;fill-opacity:1;fill-rule:nonzero;stroke:none"
         id="path66"
         inkscape:connector-curvature="0" />
    </g>
    <g
       id="g68"
       transform="matrix(1.5182293,0,0,-1.5182293,174.18349,153.57476)"
       style="fill:#ffffff;fill-opacity:1">
      <path
         d="M 0,0 C -0.705,0 -1.182,0.149 -1.443,0.457 -1.704,0.765 -1.835,1.378 -1.835,2.299 V 4.175 H -5.283 V 1.13 c 0,-1.594 0.326,-2.703 0.973,-3.331 0.653,-0.62 1.789,-0.934 3.402,-0.934 0.359,0 0.764,0.027 1.215,0.079 0.457,0.052 0.966,0.124 1.541,0.229 V 0.098 C 1.391,0.06 1.019,0.033 0.731,0.02 0.444,0.007 0.202,0 0,0"
         style="fill:#ffffff;fill-opacity:1;fill-rule:nonzero;stroke:none"
         id="path70"
         inkscape:connector-curvature="0" />
    </g>
    <g
       id="g72"
       transform="matrix(1.5182293,0,0,-1.5182293,171.39753,118.11955)"
       style="fill:#ffffff;fill-opacity:1">
      <path
         d="m 0,0 h -3.448 v -5.721 h -3.063 v -2.742 h 3.063 v -8.098 H 0 v 8.098 h 3.683 v 2.742 H 0 Z"
         style="fill:#ffffff;fill-opacity:1;fill-rule:nonzero;stroke:none"
         id="path74"
         inkscape:connector-curvature="0" />
    </g>
    <g
       id="g76"
       transform="matrix(1.5182293,0,0,-1.5182293,104.33962,147.23644)"
       style="fill:#ffffff;fill-opacity:1">
      <path
         d="m 0,0 h -1.552 -0.997 -0.969 -3.101 l 4.557,-7.035 H 2.092 V 0 Z"
         style="fill:#ffffff;fill-opacity:1;fill-rule:nonzero;stroke:none"
         id="path78"
         inkscape:connector-curvature="0" />
    </g>
  </g>
</svg>
